PathFileType	4	(X/Y/Z)	65_2_22_p1_0-493.trc
DataRate	CameraRate	NumFrames	NumMarkers	Units	OrigDataRate	OrigDataStartFrame	OrigNumFrames
60.0	60.0	7	27	m	60.0	308	494
Frame#	Time	RHip			RKnee			RAnkle			RBigToe			RSmallToe			RHeel			LHip			LKnee			LAnkle			LBigToe			LSmallToe			LHeel			Neck			Head			Nose			RShoulder			RElbow			RWrist			RThumb			RIndex			RPinky			LShoulder			LElbow			LWrist			LThumb			LIndex			LPinky			
		X1	Y1	Z1	X2	Y2	Z2	X3	Y3	Z3	X4	Y4	Z4	X5	Y5	Z5	X6	Y6	Z6	X7	Y7	Z7	X8	Y8	Z8	X9	Y9	Z9	X10	Y10	Z10	X11	Y11	Z11	X12	Y12	Z12	X13	Y13	Z13	X14	Y14	Z14	X15	Y15	Z15	X16	Y16	Z16	X17	Y17	Z17	X18	Y18	Z18	X19	Y19	Z19	X20	Y20	Z20	X21	Y21	Z21	X22	Y22	Z22	X23	Y23	Z23	X24	Y24	Z24	X25	Y25	Z25	X26	Y26	Z26	X27	Y27	Z27	
308	5.133333333333334	0.41210784831602637	0.6669559540747978	0.2745005727166918	0.38358780707636647	0.8476759958906218	0.7238648865748192	0.3216390116941945	1.0064717801730774	1.132257009595464	0.3088196972093456	0.7771405435177716	1.204832928015436	0.375709775870408	0.8264217752338456	1.2073379564353202	0.27778392174964783	1.1315933125476818	1.1983783396607373	0.1720184434537331	0.6602216259231929	0.26950129659147004	0.13755160865502447	0.8472316881929168	0.711686434100705	0.1003523133846215	1.0190467082218242	1.1015968473362479	0.11119115651152726	0.7904745865969617	1.1774882404181042	0.038264398096634664	0.8618100576897738	1.1669034837529664	0.11766330246211132	1.097859363917593	1.1696637491660917	0.28554368005624486	0.5009296040221706	-0.38776055636300166	0.2768618753144909	0.3107087333964698	-0.6128670679935398	0.2604880448449846	0.33010679982126606	-0.450702045305095	0.4565329467237355	0.5784376843868392	-0.3377402146574682	0.7408056805689011	0.5899199331222726	-0.23527627165927617	0.7056633905847176	0.42604013174275535	-0.4280946630725794	0.5967266001410955	0.3870676401438937	-0.4701183190659284	0.5985936339381934	0.29933235669529723	-0.50707633905026	0.6458304871005368	0.29736163278027555	-0.49046724551999205	0.1254062701419341	0.5444574226356017	-0.32523010593595636	0.22176438015853622	0.18553958600859413	-0.2365496196744819	0.4644885858570332	0.23599622904205828	-0.39552432863923426	0.5373128257998109	0.3217159898155252	-0.46686231019346397	0.5648202209428657	0.30343961482616616	-0.49906270751640514	0.5858470603620671	0.2317104074717647	-0.46587207331948344
309	5.15	0.4118642381598059	0.6648864573959663	0.2706594914882057	0.3835580333859645	0.8473732877592265	0.7237993578716758	0.32609342948255815	0.9886536565473613	1.128004621141125	0.30870029891899037	0.7776619457528992	1.204910033711992	0.37554015528575035	0.8269286001857156	1.207218898164112	0.2864503056675586	1.1284643375500394	1.1983187865317608	0.17211027043659158	0.6605044086900913	0.26940947264046766	0.14039519277196505	0.8630336216016519	0.7142436598268302	0.10190397050397143	1.0169263263167816	1.0969482654396567	0.11115320318825796	0.7906432537611341	1.177520928559276	0.0382455143839022	0.8620061921028241	1.1668186065404775	0.11930110568060878	1.0952822329313823	1.1648525524874105	0.2856516341351148	0.500695095819281	-0.3909732870564205	0.27690948667365944	0.31053814358025145	-0.6126292926680275	0.26051519939738943	0.33014217916403943	-0.4506730438232778	0.45646393714961403	0.5786224301912524	-0.33798860682494875	0.7410207654871649	0.5867849750283473	-0.24169850623486103	0.6970940324579654	0.41457914324767664	-0.42945359458504906	0.5903548743092434	0.39715834718912596	-0.47525844268017253	0.5937977319469353	0.2998826540785355	-0.5073045886371478	0.6454645871179568	0.2972553356793345	-0.49039907624645196	0.12528964910295917	0.5445392925627061	-0.32522201768653536	0.2209731767041566	0.18538976178501002	-0.2301250491011641	0.4643781176883526	0.23560436782889557	-0.3951859421607164	0.5359940287431157	0.30726517903988126	-0.4636267503808494	0.5646115618607475	0.3033198898900452	-0.49651662716809725	0.5855323143999693	0.2318468973072176	-0.4605726783976737
310	5.166666666666667	0.41201944101953875	0.666908295723053	0.274473209076209	0.38352685514203927	0.8475713615641555	0.7239195176807945	0.32158983651454787	1.0062351314412938	1.132525909995586	0.30877127140659666	0.7781145125941472	1.205033624027632	0.3757262003808275	0.8275776234303089	1.207417360972237	0.2826767058084569	1.1116082736689097	1.1936366642303378	0.1721319741018468	0.6603062932866505	0.26951952899359033	0.13760531632000908	0.8472700746391401	0.711618362348893	0.10040933073276041	1.0187552547923149	1.1014826698782296	0.11118337192733896	0.7905686643457128	1.177508008733094	0.038296668933013915	0.8618329125475902	1.1668269574799879	0.1249169907557681	1.0769924403170579	1.160501317779324	0.2814160818253294	0.5139992264945854	-0.3942967494399859	0.27299702951489985	0.3104264256827512	-0.6127584318710728	0.260466544194479	0.33006315405337927	-0.4506412997998606	0.456360873742061	0.5788510106177189	-0.33821621536432	0.7405778258398669	0.5878230450951993	-0.23823437125322544	0.6929516997817093	0.4121905634448585	-0.4326344647985934	0.5857790470290065	0.38690668510300585	-0.4719996774714685	0.5877559681465584	0.2991082134855415	-0.510360248765185	0.6454770696875917	0.29564689780750236	-0.4929514988098448	0.12525570554177534	0.5446144732905398	-0.3252835409696411	0.2284551879164482	0.17764874075463374	-0.2278332230091093	0.4640159000902604	0.23538958835122056	-0.39203887464994586	0.5330346409687963	0.32050649017549215	-0.4665220526463213	0.56459750193411	0.30319242140908637	-0.49959633661513214	0.5856602157287985	0.23173982388566133	-0.4635913535029085
311	5.183333333333334	0.412095311538768	0.6668910945628245	0.2744464419007466	0.38367046853483705	0.8474132299025999	0.7239970219452687	0.32155760808776485	1.0060965189317859	1.1324576406754276	0.30872246313551	0.77836681025139	1.2051874698663627	0.37579585771856716	0.8275651488732441	1.207513652815067	0.2779740250715291	1.1307684779098373	1.1985881155099138	0.17219326691010764	0.6602435237519845	0.2695140718265084	0.1387338773832434	0.8456531841748366	0.7077293437066624	0.10193676834637444	1.0166216995874933	1.0968229313333295	0.11120289177173116	0.7906254935819315	1.1774735523256037	0.03829271613541897	0.8618748068952635	1.1668170244978808	0.12975015235350187	1.0805928663009092	1.1569384635382962	0.28152069437990757	0.5142361608487902	-0.3943504664937564	0.2729721698269936	0.3105333616054576	-0.6126790519852001	0.2603593109364119	0.33147555434119963	-0.4476948252090013	0.4568674655270418	0.5781312343526795	-0.3417368442910835	0.7405498418684531	0.5879971419122094	-0.23833583120872545	0.6885168948116206	0.41270897841825105	-0.42944614634970285	0.585661480564315	0.3866746231313931	-0.4727216451453621	0.5747732163683033	0.3120845068796376	-0.5128882904363875	0.6414735450928883	0.2858303333432756	-0.49358594014605983	0.12543985153061704	0.5425672433761533	-0.32844240610960246	0.23171747834272693	0.17921794113824202	-0.22477590552154605	0.46708008213842334	0.23617158629745336	-0.39134058932541166	0.5372295027776443	0.3212790015563907	-0.4691574290878202	0.5620232545603996	0.31326237824956793	-0.5059392194150023	0.5856550499540424	0.23153910036988457	-0.4662160527743225
312	5.2	0.41192417198612546	0.6648698002256287	0.27067858551942736	0.3836541315987134	0.8473169157795153	0.723839623115923	0.3232266029792067	1.0050626025369183	1.1232053198861338	0.3055492172570501	0.7621069919058326	1.2001923182352288	0.3758264086245786	0.8266680500353532	1.2073191668677594	0.27767817037475356	1.1285752715445385	1.1890080403248824	0.1723630722232493	0.6604700157532777	0.2655169628347814	0.1386919296612863	0.8461750798351914	0.7073200181249473	0.10634452391285543	1.0186186066668383	1.0975209186319526	0.11122725607397535	0.7919565286821997	1.1736368745712948	0.03816676401394455	0.8632696149178243	1.162987298548475	0.12526107426264219	1.0784163150708077	1.1556792645090703	0.2811256688306644	0.5147224153016087	-0.3910445082482381	0.27291509174769124	0.31027739598755383	-0.6125378445462247	0.26014350861222457	0.3316446135666432	-0.4443479512820677	0.4569169742595713	0.5783212820670158	-0.3417884555353473	0.740366271273391	0.5867730349159351	-0.24125353593745302	0.6797421342696219	0.4015810982079993	-0.42731984793886874	0.5827987727878527	0.39796231049151964	-0.478688971542992	0.5745799595421246	0.3126153252255278	-0.5133801190680953	0.6411669700699685	0.2862980913927355	-0.4908685286410178	0.1255014812218199	0.5426950957457031	-0.3284436993673856	0.24214262321031843	0.18460878379216059	-0.22397856168233596	0.44748455515606256	0.1895331040148149	-0.36653826446776394	0.5353406781704372	0.3492368473818472	-0.4723669613940708	0.5580290887904984	0.3060017327709578	-0.4998321609725676	0.5849687623581246	0.23074934705517036	-0.46499951069687234
313	5.216666666666667	0.4084020594749577	0.6532863959961025	0.27419896612150585	0.3836409432649383	0.8472918835122074	0.723873822483729	0.3232083867162713	1.0049343817008607	1.123152278215069	0.3052793591487977	0.7626265813427168	1.2001313861724845	0.37681992964692407	0.8265571455794658	1.202865737025971	0.2828468588873033	1.1125900761357663	1.1888752828146658	0.1721580717586182	0.6601136924752734	0.2695516699189022	0.13875506084459138	0.8459100421678984	0.7073833822197416	0.1063187629541361	1.0187079277550066	1.0975495929300538	0.11115672421480709	0.7921178190040613	1.1734976587718393	0.0381456895473872	0.8632475513451023	1.1628285701189622	0.12509094914285568	1.0785901061737728	1.1558335936387065	0.2811565619684565	0.5146690253390331	-0.3910003130345069	0.2731401499907759	0.3097841949423924	-0.6149014104437607	0.2601517624246088	0.33157141434877097	-0.4443045574635097	0.46092380556381574	0.5791009341916876	-0.34170375600513514	0.7404986575032473	0.5865373399900989	-0.24145259212306247	0.6816189814190351	0.41258321060804987	-0.4369005522253683	0.5788599931668726	0.38716882211640746	-0.4765506427159965	0.5719254874399875	0.32183284088491004	-0.5200933533487027	0.6392571041098172	0.2960582228471091	-0.500726835982181	0.12541164748744027	0.5426792664112864	-0.32844785689828754	0.2460660550613974	0.17622612294931875	-0.21528811499567677	0.4518630978244415	0.1869242766701381	-0.3628905854169056	0.5395655429410439	0.3518962967215232	-0.4689261469184113	0.5579820966979843	0.30618524997835406	-0.49987758401905025	0.5849682462157746	0.2305640641217161	-0.4678362815926485
314	5.233333333333333	0.4084351718440921	0.6531985630273368	0.27421642661745504	0.38751512879785094	0.8615537405785784	0.7260686390467677	0.32184277337536416	1.007152217692161	1.1277414249180344	0.312942599595436	0.7630719558499113	1.2005947608942054	0.37582301550018954	0.8277467319402445	1.2072064803556781	0.2792480049107282	1.0966598742170692	1.1841884488413628	0.17237540558100334	0.6602713978524583	0.26557502393076987	0.13869935335816647	0.8457959741213165	0.7074741744963967	0.10636774290655153	1.0186202347189128	1.0975159072496994	0.11120149262965655	0.7920887260278798	1.173415760548182	0.03820213730745313	0.8632183259449977	1.1628204638710637	0.12513463810888667	1.077633468954597	1.155621187679138	0.2848151102565561	0.5164368010299073	-0.391093517307482	0.27290500061104483	0.3103841810491937	-0.6123626923609786	0.2601819745647587	0.3316419007163717	-0.4443310679468542	0.4609589295576884	0.5790907185472365	-0.34188745792116865	0.7408815776134396	0.5851939652424184	-0.24508387956647004	0.6773485830759244	0.4129613784679049	-0.4338554516210116	0.5758905195308701	0.4008100084102516	-0.4772151483249875	0.5679912010326205	0.31075176360121787	-0.5204707572176214	0.638937012824507	0.2966307458094658	-0.49758647602727046	0.1256591029268323	0.5408155670877668	-0.33129720239827004	0.24977159562456877	0.1789490811165979	-0.2120824931689615	0.4474574035935057	0.18502862656006994	-0.3566103906072622	0.5392700198342774	0.35414753087678646	-0.46277243145387276	0.5579685029084044	0.30621305687174083	-0.4998617638570094	0.5852894618565101	0.23110695489937677	-0.4681383928081993
